<svg t="1757414025870" class="icon" viewBox="0 0 1024 1024" version="1.1" xmlns="http://www.w3.org/2000/svg" p-id="925" width="64" height="64"><path d="M851.626667 453.973333H88.746667c-11.946667 0-22.186667-8.533333-25.6-20.48-3.413333-11.946667 3.413333-23.893333 13.653333-29.013333 3.413333 0 76.8-39.253333 76.8-133.12S80.213333 138.24 76.8 136.533333c-10.24-5.12-15.36-17.066667-11.946667-29.013333 3.413333-11.946667 13.653333-18.773333 25.6-18.773333H853.333333c3.413333 0 8.533333 1.706667 11.946667 3.413333 3.413333 1.706667 104.106667 52.906667 104.106667 180.906667S870.4 450.56 865.28 453.973333h-13.653333z m-692.906667-51.2h687.786667c17.066667-10.24 71.68-49.493333 71.68-131.413333 0-81.92-54.613333-121.173333-71.68-131.413333H158.72c23.893333 29.013333 46.08 71.68 46.08 131.413333s-22.186667 102.4-46.08 131.413333zM942.08 948.906667H179.2c-3.413333 0-8.533333-1.706667-11.946667-3.413334-3.413333-1.706667-104.106667-52.906667-104.106666-180.906666s98.986667-177.493333 104.106666-180.906667c3.413333-1.706667 6.826667-3.413333 11.946667-3.413333h762.88c11.946667 0 22.186667 8.533333 25.6 20.48 3.413333 11.946667-3.413333 23.893333-13.653333 29.013333-3.413333 1.706667-75.093333 40.96-75.093334 134.826667 0 95.573333 75.093333 133.12 75.093334 134.826666 10.24 5.12 15.36 17.066667 13.653333 29.013334-3.413333 11.946667-13.653333 20.48-25.6 20.48z m-756.053333-51.2h687.786666c-23.893333-29.013333-46.08-71.68-46.08-131.413334s22.186667-102.4 46.08-131.413333H186.026667c-17.066667 10.24-71.68 49.493333-71.68 131.413333 0 80.213333 54.613333 121.173333 71.68 131.413334z" fill="#333333" p-id="926"></path><path d="M295.253333 725.333333m-162.133333 0a162.133333 162.133333 0 1 0 324.266667 0 162.133333 162.133333 0 1 0-324.266667 0Z" fill="#333333" opacity=".3" p-id="927" data-spm-anchor-id="a313x.manage_type_mylikes.0.i2.bb653a81t8EIFp" class="selected"></path></svg>