<svg t="1757477226090" class="icon" viewBox="0 0 1024 1024" version="1.1" xmlns="http://www.w3.org/2000/svg" p-id="789" width="64" height="64"><path d="M682.666667 128v85.333333a42.581333 42.581333 0 0 0 66.389333 35.456A42.496 42.496 0 0 0 768 213.333333V85.333333a42.666667 42.666667 0 0 0-42.666667-42.666666H170.666667a42.666667 42.666667 0 0 0-42.666667 42.666666v725.333334a42.666667 42.666667 0 0 0 61.738667 38.144l127.146666-63.573334A42.666667 42.666667 0 0 0 341.333333 746.666667v-0.170667a42.666667 42.666667 0 0 0-62.506666-37.589333L213.333333 741.632V128h469.333334z" fill="#e67710" p-id="790" data-spm-anchor-id="a313x.manage_type_mylikes.0.i2.6bc83a81jm91AL" class="selected"></path><path d="M298.666667 938.666667V213.333333h554.666666v725.333334l-277.333333-133.802667L298.666667 938.666667z" fill="#961D1D" p-id="791"></path><path d="M256 213.333333v725.333334a42.666667 42.666667 0 0 0 61.226667 38.4l258.773333-124.842667 258.773333 124.885333A42.666667 42.666667 0 0 0 896 938.666667V213.333333a42.666667 42.666667 0 0 0-42.666667-42.666666H298.666667a42.666667 42.666667 0 0 0-42.666667 42.666666z m85.333333 657.365334l216.106667-104.277334a42.666667 42.666667 0 0 1 37.12 0L810.666667 870.698667V256H341.333333v614.698667z" fill="#e67710" p-id="792" data-spm-anchor-id="a313x.manage_type_mylikes.0.i1.6bc83a81jm91AL" class="selected"></path></svg>